<svg viewBox="0 -40 1210 300" xmlns="http://www.w3.org/2000/svg" class="w-26 fill-[#000000] dark:fill-[#ffffff]"><path d="M103.4 211.2q-30.25 0-50.875-12.375Q31.9 186.175 21.45 163.9T11 112.2t10.725-51.975 31.35-35.2Q73.7 12.1 103.4 12.1q22 0 38.775 7.425T169.4 40.7q10.725 13.475 13.75 33.275h-33.275q-3.85-14.025-15.675-22T103.4 44q-20.625 0-33.275 9.625T51.7 78.375q-5.5 15.125-5.5 32.45 0 17.875 5.775 33.55 6.05 15.675 18.975 25.3t33.275 9.625q12.65 0 22-3.575 9.625-3.575 15.95-10.175 6.6-6.875 9.075-15.95h34.925q-3.3 19.525-14.85 33.275-11.275 13.75-28.875 21.175-17.325 7.15-39.05 7.15m100.083-2.2V14.575h33.55v68.2q5.774-7.425 13.475-12.1t16.225-6.6q8.524-2.2 16.225-2.2 20.624 0 32.45 9.075 11.825 9.075 16.5 24.2 4.95 15.125 4.95 34.1V209h-33.55v-73.975q0-7.425-1.1-15.125t-4.4-13.75q-3.026-6.325-9.35-10.175-6.05-3.85-16.225-3.85-9.625 0-16.5 4.125-6.875 3.85-11 10.725-3.85 6.875-5.775 15.125t-1.925 16.5V209zm202.842 1.925q-10.175 0-19.25-2.75T370.85 200.2q-7.149-5.5-11.55-13.475-4.125-8.25-4.125-19.25 0-14.025 5.5-22.825 5.5-9.075 14.85-13.75 9.626-4.675 21.725-6.325 12.1-1.925 25.3-1.925h28.325q0-9.626-3.025-16.5-3.025-7.15-9.625-11.275-6.324-4.125-16.5-4.125-6.6 0-12.375 1.65-5.5 1.375-9.625 4.675-3.85 3.025-5.5 7.975H359.85q1.926-11.275 7.7-19.25 6.05-8.25 14.575-13.475 8.8-5.225 19.25-7.7a83 83 0 0 1 21.175-2.75q31.626 0 45.925 18.15 14.575 18.15 14.575 50.875V209h-29.7l-.825-18.7q-6.324 9.35-15.125 13.75t-17.05 5.5q-8.25 1.375-14.025 1.375m6.6-27.225q11 0 19.525-4.125 8.526-4.125 13.475-11.55 5.225-7.425 5.225-17.05V146.3h-26.4q-6.6 0-13.2.55-6.324.275-11.55 2.2-5.225 1.65-8.525 5.225-3.024 3.575-3.025 10.175t3.3 10.725q3.576 4.125 9.075 6.325 5.776 2.2 12.1 2.2m249.37 27.5q-30.25 0-50.875-12.375-20.626-12.65-31.075-34.925-10.45-22.275-10.45-51.7t10.725-51.975 31.35-35.2Q632.595 12.1 662.295 12.1q21.999 0 38.775 7.425 16.774 7.425 27.225 21.175 10.725 13.475 13.75 33.275H708.77q-3.85-14.025-15.675-22T662.295 44q-20.625 0-33.275 9.625t-18.425 24.75q-5.5 15.125-5.5 32.45 0 17.875 5.775 33.55 6.05 15.675 18.975 25.3 12.924 9.625 33.275 9.625 12.65 0 22-3.575 9.624-3.575 15.95-10.175 6.6-6.875 9.075-15.95h34.925q-3.3 19.525-14.85 33.275-11.276 13.75-28.875 21.175-17.325 7.15-39.05 7.15m166.357-.275q-22.275 0-38.5-9.075-15.95-9.075-24.75-25.85-8.525-16.775-8.525-39.325 0-22.825 8.8-39.325 8.8-16.775 24.75-26.125t38.225-9.35q22 0 37.95 9.35t24.475 26.4q8.525 16.774 8.525 39.6 0 22.275-8.525 39.05-8.25 16.5-24.2 25.575t-38.225 9.075m-.275-30.525q13.75 0 22-6.05 8.526-6.05 12.375-15.95t3.85-21.45-3.85-21.725Q858.903 105.05 850.377 99q-8.25-6.325-22-6.325T806.102 99q-8.524 6.05-12.375 16.225-3.85 9.9-3.85 21.725 0 11.55 3.85 21.725 4.125 9.9 12.375 15.95 8.526 5.775 22.275 5.775m148.962 30.525q-21.999 0-36.3-9.9-14.3-10.175-21.45-26.95-6.875-16.775-6.875-37.4 0-21.45 7.425-38.225 7.425-17.05 22.275-26.675 14.85-9.9 37.125-9.9 8.25 0 15.95 1.925 7.981 1.65 14.851 5.5 7.155 3.575 11.82 9.625v-64.35h33.55V209h-32.45l-.55-18.15c-3.48 4.583-7.6 8.342-12.37 11.275-4.58 2.933-9.72 5.133-15.401 6.6q-8.525 2.2-17.6 2.2m6.325-30.25q13.2 0 21.726-6.05c5.68-4.217 9.9-9.717 12.65-16.5 2.93-6.967 4.4-14.3 4.4-22 0-8.067-1.47-15.4-4.4-22-2.75-6.6-6.97-11.917-12.65-15.95q-8.526-6.05-21.726-6.05-14.025 0-22.275 6.325-7.974 6.325-11.825 16.775-3.575 10.175-3.575 22 0 8.8 1.925 16.775 2.2 7.7 6.6 13.75 4.401 6.05 11.55 9.625 7.15 3.3 17.6 3.3m161.196 30.25c-15.03 0-27.87-3.117-38.5-9.35-10.45-6.233-18.43-14.85-23.93-25.85-5.31-11.183-7.97-24.108-7.97-38.775q0-22 8.25-38.775c5.68-11.367 13.75-20.258 24.2-26.675q15.945-9.625 38.22-9.625c11 0 20.63 2.017 28.88 6.05 8.25 3.85 15.12 9.167 20.62 15.95 5.69 6.783 9.9 14.483 12.65 23.1s4.04 17.692 3.85 27.225c-.18 2.2-.36 4.4-.55 6.6-.18 2.017-.45 4.217-.82 6.6h-101.75q.825 9.625 4.95 17.6c2.93 5.317 6.97 9.533 12.1 12.65q7.98 4.675 19.8 4.675 6.87 0 13.2-1.65c4.22-1.283 7.88-3.117 11-5.5q4.95-3.575 6.6-9.075h33.55q-3.57 15.675-13.2 25.575t-23.1 14.575q-13.2 4.675-28.05 4.675m-36.3-88.55h69.85c0-6.05-1.38-11.55-4.13-16.5q-4.125-7.425-11.82-11.55-7.425-4.4-18.15-4.4c-7.7 0-14.12 1.558-19.25 4.675s-9.08 7.15-11.83 12.1-4.3 10.175-4.67 15.675"></path><circle cx="524" cy="22" r="22" class="custom-bounce fill-[#ff7d0c] dark:fill-[#f79b4a]"></circle><path d="M506 63h34v147h-34z"></path></svg>